<?xml version="1.0" encoding="UTF-8" standalone="no"?>
<!-- Created with Inkscape (http://www.inkscape.org/) -->

<svg
   xmlns:dc="http://purl.org/dc/elements/1.1/"
   xmlns:cc="http://creativecommons.org/ns#"
   xmlns:rdf="http://www.w3.org/1999/02/22-rdf-syntax-ns#"
   xmlns:svg="http://www.w3.org/2000/svg"
   xmlns="http://www.w3.org/2000/svg"
   xmlns:sodipodi="http://sodipodi.sourceforge.net/DTD/sodipodi-0.dtd"
   xmlns:inkscape="http://www.inkscape.org/namespaces/inkscape"
   version="1.1"
   id="svg2"
   xml:space="preserve"
   width="559.97614"
   height="421.60504"
   viewBox="0 0 559.97613 421.60504"
   sodipodi:docname="method3.svg"
   inkscape:version="0.92.2 2405546, 2018-03-11"><metadata
     id="metadata8"><rdf:RDF><cc:Work
         rdf:about=""><dc:format>image/svg+xml</dc:format><dc:type
           rdf:resource="http://purl.org/dc/dcmitype/StillImage" /><dc:title></dc:title></cc:Work></rdf:RDF></metadata><defs
     id="defs6"><clipPath
       clipPathUnits="userSpaceOnUse"
       id="clipPath22"><path
         d="M 57.6,38.016 H 414.72 V 304.128 H 57.6 Z"
         id="path20"
         inkscape:connector-curvature="0" /></clipPath><clipPath
       clipPathUnits="userSpaceOnUse"
       id="clipPath128"><path
         d="M 57.6,38.016 H 414.72 V 304.128 H 57.6 Z"
         id="path126"
         inkscape:connector-curvature="0" /></clipPath><clipPath
       clipPathUnits="userSpaceOnUse"
       id="clipPath138"><path
         d="M 57.6,38.016 H 414.72 V 304.128 H 57.6 Z"
         id="path136"
         inkscape:connector-curvature="0" /></clipPath><clipPath
       clipPathUnits="userSpaceOnUse"
       id="clipPath148"><path
         d="M 57.6,38.016 H 414.72 V 304.128 H 57.6 Z"
         id="path146"
         inkscape:connector-curvature="0" /></clipPath></defs><sodipodi:namedview
     pagecolor="#ffffff"
     bordercolor="#666666"
     borderopacity="1"
     objecttolerance="10"
     gridtolerance="10"
     guidetolerance="10"
     inkscape:pageopacity="0"
     inkscape:pageshadow="2"
     inkscape:window-width="1920"
     inkscape:window-height="984"
     id="namedview4"
     showgrid="false"
     fit-margin-top="0"
     fit-margin-left="0"
     fit-margin-right="0"
     fit-margin-bottom="0"
     inkscape:zoom="0.9983453"
     inkscape:cx="242.12549"
     inkscape:cy="99.798953"
     inkscape:window-x="0"
     inkscape:window-y="36"
     inkscape:window-maximized="1"
     inkscape:current-layer="g10" /><g
     id="g10"
     inkscape:groupmode="layer"
     inkscape:label="method2"
     transform="matrix(1.3333333,0,0,-1.3333333,-65.074524,460.62003)"><path
       d="M 57.6,38.016 H 414.72 V 304.128 H 57.6 Z"
       style="fill:#ffffff;fill-opacity:1;fill-rule:nonzero;stroke:none"
       id="path14"
       inkscape:connector-curvature="0" /><g
       id="g16"><g
         id="g18"
         clip-path="url(#clipPath22)"><path
           d="m 57.6,38.016 v 79.8336 l 3.607273,-0.80095 3.607272,-1.44375 3.607273,-1.83048 3.607273,-2.11187 3.607273,-2.32427 3.607272,-2.48472 3.607273,-2.60332 3.607273,-2.68701 3.607273,-2.740958 3.607272,-2.769333 3.607273,-2.775606 3.60727,-2.762769 3.60728,-2.733454 3.60727,-2.69001 3.60727,-2.634545 3.60727,-2.568966 3.60728,-2.494999 3.60727,-2.414201 3.60727,-2.327989 3.60727,-2.237632 3.60728,-2.144274 3.60727,-2.048938 3.60727,-1.952533 3.60727,-1.855862 3.60728,-1.759632 3.60727,-1.664456 3.60727,-1.57086 3.60728,-1.479297 3.60727,-1.390142 3.60727,-1.303709 3.60727,-1.220245 3.60728,-1.139948 3.60727,-1.062965 3.60727,-0.989399 3.60727,-0.91931 3.60728,-0.852729 3.60727,-0.789653 3.60727,-0.730055 3.60728,-0.67388 3.60727,-0.621062 3.60727,-0.571511 3.60727,-0.525129 3.60728,-0.481805 3.60727,-0.441421 3.60727,-0.403851 3.60727,-0.368967 3.60728,-0.336638 3.60727,-0.306728 3.60727,-0.279109 3.60728,-0.253647 3.60727,-0.230213 3.60727,-0.208681 3.60727,-0.188928 3.60728,-0.170835 3.60727,-0.154288 3.60727,-0.139178 3.60727,-0.1254 3.60728,-0.112854 3.60727,-0.101448 3.60727,-0.09109 3.60728,-0.0817 3.60727,-0.07319 3.60727,-0.0655 3.60727,-0.05856 3.60728,-0.05229 3.60727,-0.04664 3.60727,-0.04157 3.60727,-0.037 3.60728,-0.0329 3.60727,-0.02923 3.60727,-0.02594 3.60728,-0.023 3.60727,-0.02037 3.60727,-0.01802 3.60728,-0.01593 3.60727,-0.01407 3.60727,-0.01241 3.60727,-0.01094 3.60727,-0.0096 3.60728,-0.0085 3.60727,-0.0075 3.60727,-0.0065 3.60728,-0.0057 3.60727,-0.005 3.60727,-0.0044 3.60727,-0.0039 3.60728,-0.0034 3.60727,-0.0029 3.60727,-0.0026 3.60727,-0.0022 3.60728,-0.002 3.60727,-0.0017 3.60727,-0.0015 3.60728,-0.0013 3.60727,-0.0011 3.60727,-9.67e-4 3.60727,-8.38e-4 3.60728,-7.26e-4 3.60727,-6.28e-4 v -0.0039 0 h -3.60727 -3.60728 -3.60727 -3.60727 -3.60727 -3.60728 -3.60727 -3.60727 -3.60728 -3.60727 -3.60727 -3.60727 -3.60728 -3.60727 -3.60727 -3.60727 -3.60728 -3.60727 -3.60727 -3.60728 -3.60727 -3.60727 -3.60727 -3.60727 -3.60728 -3.60727 -3.60727 -3.60728 -3.60727 -3.60727 -3.60728 -3.60727 -3.60727 -3.60727 -3.60728 -3.60727 -3.60727 -3.60727 -3.60728 -3.60727 -3.60727 -3.60728 -3.60727 H 256 h -3.60727 -3.60728 -3.60727 -3.60727 -3.60727 -3.60728 -3.60727 -3.60727 -3.60728 -3.60727 -3.60727 -3.60727 -3.60728 -3.60727 -3.60727 -3.60727 -3.60728 -3.60727 -3.60727 -3.60728 -3.60727 -3.60727 -3.60727 -3.60728 -3.60727 -3.60727 -3.60727 -3.60728 -3.60727 -3.60727 -3.60728 -3.60727 -3.60727 -3.60727 -3.60728 -3.60727 -3.60727 -3.60727 -3.60728 -3.60727 -3.60727 -3.60727 -3.60728 H 97.28 93.672727 90.065455 86.458182 82.850909 79.243636 75.636364 72.029091 68.421818 64.814545 61.207273 57.6 Z"
           style="fill:#808080;fill-opacity:1;fill-rule:nonzero;stroke:#808080;stroke-width:1;stroke-linecap:butt;stroke-linejoin:round;stroke-miterlimit:10;stroke-dasharray:none;stroke-opacity:1"
           id="path24"
           inkscape:connector-curvature="0" /></g></g><g
       id="g26"><path
         d="m 468.288,38.016 -20.5344,-7.65072 6.16032,7.649389 H 57.6 v 0.0027 h 396.31392 l -6.16032,7.649389 20.5344,-7.65072 z"
         style="fill:#000000;fill-opacity:1;fill-rule:nonzero;stroke:#000000;stroke-width:1;stroke-linecap:butt;stroke-linejoin:miter;stroke-miterlimit:10;stroke-dasharray:none;stroke-opacity:1"
         id="path28"
         inkscape:connector-curvature="0" /><path
         d="m 57.6,344.0448 7.687132,-20.43713 -7.685346,6.13114 V 38.016 h -0.0036 v 291.72281 l -7.685346,-6.13114 z"
         style="fill:#000000;fill-opacity:1;fill-rule:nonzero;stroke:#000000;stroke-width:1;stroke-linecap:butt;stroke-linejoin:miter;stroke-miterlimit:10;stroke-dasharray:none;stroke-opacity:1"
         id="path30"
         inkscape:connector-curvature="0" /><path
         d="m 93.312,254.74982 5.3568,-10.64448 -5.355014,3.19334 v -48.789 h -0.0036 v 48.789 l -5.355014,-3.19334 5.3568,10.64448 z"
         style="fill:#000000;fill-opacity:1;fill-rule:nonzero;stroke:#000000;stroke-width:1;stroke-linecap:butt;stroke-linejoin:miter;stroke-miterlimit:10;stroke-dasharray:none;stroke-opacity:1"
         id="path32"
         inkscape:connector-curvature="0" /><path
         d="m 129.024,223.82438 5.3568,-10.64448 -5.35501,3.19334 v -40.07915 h -0.004 v 40.07915 l -5.35501,-3.19334 5.3568,10.64448 z"
         style="fill:#000000;fill-opacity:1;fill-rule:nonzero;stroke:#000000;stroke-width:1;stroke-linecap:butt;stroke-linejoin:miter;stroke-miterlimit:10;stroke-dasharray:none;stroke-opacity:1"
         id="path34"
         inkscape:connector-curvature="0" /><path
         d="m 164.736,197.31165 5.3568,-10.64448 -5.35501,3.19334 v -32.70692 h -0.004 v 32.70692 l -5.35501,-3.19334 5.3568,10.64448 z"
         style="fill:#000000;fill-opacity:1;fill-rule:nonzero;stroke:#000000;stroke-width:1;stroke-linecap:butt;stroke-linejoin:miter;stroke-miterlimit:10;stroke-dasharray:none;stroke-opacity:1"
         id="path36"
         inkscape:connector-curvature="0" /><path
         d="m 200.448,174.58198 5.3568,-10.64448 -5.35501,3.19335 v -26.46833 h -0.004 v 26.46833 l -5.35501,-3.19335 5.3568,10.64448 z"
         style="fill:#000000;fill-opacity:1;fill-rule:nonzero;stroke:#000000;stroke-width:1;stroke-linecap:butt;stroke-linejoin:miter;stroke-miterlimit:10;stroke-dasharray:none;stroke-opacity:1"
         id="path38"
         inkscape:connector-curvature="0" /><path
         d="m 236.16,155.09558 5.3568,-10.64448 -5.35501,3.19334 v -21.19028 h -0.004 v 21.19028 l -5.35501,-3.19334 5.3568,10.64448 z"
         style="fill:#000000;fill-opacity:1;fill-rule:nonzero;stroke:#000000;stroke-width:1;stroke-linecap:butt;stroke-linejoin:miter;stroke-miterlimit:10;stroke-dasharray:none;stroke-opacity:1"
         id="path40"
         inkscape:connector-curvature="0" /><path
         d="m 271.872,138.38966 5.3568,-10.64448 -5.35501,3.19334 v -16.726 h -0.004 v 16.726 l -5.35501,-3.19334 5.3568,10.64448 z"
         style="fill:#000000;fill-opacity:1;fill-rule:nonzero;stroke:#000000;stroke-width:1;stroke-linecap:butt;stroke-linejoin:miter;stroke-miterlimit:10;stroke-dasharray:none;stroke-opacity:1"
         id="path42"
         inkscape:connector-curvature="0" /><path
         d="m 307.584,124.06749 5.3568,-10.64448 -5.35501,3.19334 v -12.95098 h -0.004 v 12.95098 l -5.35501,-3.19334 5.3568,10.64448 z"
         style="fill:#000000;fill-opacity:1;fill-rule:nonzero;stroke:#000000;stroke-width:1;stroke-linecap:butt;stroke-linejoin:miter;stroke-miterlimit:10;stroke-dasharray:none;stroke-opacity:1"
         id="path44"
         inkscape:connector-curvature="0" /><path
         d="m 343.296,111.78892 5.3568,-10.64448 -5.35501,3.19335 v -9.759631 h -0.004 v 9.759631 l -5.35501,-3.19335 5.3568,10.64448 z"
         style="fill:#000000;fill-opacity:1;fill-rule:nonzero;stroke:#000000;stroke-width:1;stroke-linecap:butt;stroke-linejoin:miter;stroke-miterlimit:10;stroke-dasharray:none;stroke-opacity:1"
         id="path46"
         inkscape:connector-curvature="0" /><path
         d="m 379.008,101.26237 5.3568,-10.644479 -5.35501,3.193344 v -7.062429 h -0.004 v 7.062429 l -5.35501,-3.193344 5.3568,10.644479 z"
         style="fill:#000000;fill-opacity:1;fill-rule:nonzero;stroke:#000000;stroke-width:1;stroke-linecap:butt;stroke-linejoin:miter;stroke-miterlimit:10;stroke-dasharray:none;stroke-opacity:1"
         id="path48"
         inkscape:connector-curvature="0" /></g><g
       id="g122"><g
         id="g124"
         clip-path="url(#clipPath128)"><path
           d="m 57.6,117.8496 3.607273,-0.80095 3.607272,-1.44375 3.607273,-1.83048 3.607273,-2.11187 3.607273,-2.32427 3.607272,-2.48472 3.607273,-2.60332 3.607273,-2.68701 3.607273,-2.740958 3.607272,-2.769333 3.607273,-2.775606 3.60727,-2.762769 3.60728,-2.733454 3.60727,-2.69001 3.60727,-2.634545 3.60727,-2.568966 3.60728,-2.494999 3.60727,-2.414201 3.60727,-2.327989 3.60727,-2.237632 3.60728,-2.144274 3.60727,-2.048938 3.60727,-1.952533 3.60727,-1.855862 3.60728,-1.759632 3.60727,-1.664456 3.60727,-1.57086 3.60728,-1.479297 3.60727,-1.390142 3.60727,-1.303709 3.60727,-1.220245 3.60728,-1.139948 3.60727,-1.062965 3.60727,-0.989399 3.60727,-0.91931 3.60728,-0.852729 3.60727,-0.789653 3.60727,-0.730055 3.60728,-0.67388 3.60727,-0.621062 3.60727,-0.571511 3.60727,-0.525129 3.60728,-0.481805 3.60727,-0.441421 3.60727,-0.403851 3.60727,-0.368967 3.60728,-0.336638 3.60727,-0.306728 3.60727,-0.279109 3.60728,-0.253647 3.60727,-0.230213 3.60727,-0.208681 3.60727,-0.188928 3.60728,-0.170835 3.60727,-0.154288 3.60727,-0.139178 3.60727,-0.1254 3.60728,-0.112854 3.60727,-0.101448 3.60727,-0.09109 3.60728,-0.0817 3.60727,-0.07319 3.60727,-0.0655 3.60727,-0.05856 3.60728,-0.05229 3.60727,-0.04664 3.60727,-0.04157 3.60727,-0.037 3.60728,-0.0329 3.60727,-0.02923 3.60727,-0.02594 3.60728,-0.023 3.60727,-0.02037 3.60727,-0.01802 3.60728,-0.01593 3.60727,-0.01407 3.60727,-0.01241 3.60727,-0.01094 3.60727,-0.0096 3.60728,-0.0085 3.60727,-0.0075 3.60727,-0.0065 3.60728,-0.0057 3.60727,-0.005 3.60727,-0.0044 3.60727,-0.0039 3.60728,-0.0034 3.60727,-0.0029 3.60727,-0.0026 3.60727,-0.0022 3.60728,-0.002 3.60727,-0.0017 3.60727,-0.0015 3.60728,-0.0013 3.60727,-0.0011 3.60727,-9.67e-4 3.60727,-8.38e-4 3.60728,-7.26e-4 3.60727,-6.28e-4"
           style="fill:none;stroke:#000000;stroke-width:1.5;stroke-linecap:square;stroke-linejoin:round;stroke-miterlimit:10;stroke-dasharray:none;stroke-opacity:1"
           id="path130"
           inkscape:connector-curvature="0" /></g></g><g
       id="g132"><g
         id="g134"
         clip-path="url(#clipPath138)"><path
           d="m 57.6,224.2944 3.607273,-2.78237 3.607272,-2.7408 3.607273,-2.69987 3.607273,-2.65954 3.607273,-2.61982 3.607272,-2.58068 3.607273,-2.54214 3.607273,-2.50417 3.607273,-2.46676 3.607272,-2.42992 3.607273,-2.39362 3.60727,-2.35788 3.60728,-2.32265 3.60727,-2.28796 3.60727,-2.25378 3.60727,-2.22013 3.60728,-2.18696 3.60727,-2.15429 3.60727,-2.12212 3.60727,-2.09042 3.60728,-2.0592 3.60727,-2.02844 3.60727,-1.99814 3.60727,-1.96829 3.60728,-1.9389 3.60727,-1.90994 3.60727,-1.8814 3.60728,-1.85331 3.60727,-1.82562 3.60727,-1.79836 3.60727,-1.77149 3.60728,-1.74504 3.60727,-1.71897 3.60727,-1.69329 3.60727,-1.668 3.60728,-1.64309 3.60727,-1.61854 3.60727,-1.59437 3.60728,-1.57056 3.60727,-1.54709 3.60727,-1.52399 3.60727,-1.50123 3.60728,-1.4788 3.60727,-1.45671 3.60727,-1.43496 3.60727,-1.41352 3.60728,-1.39241 3.60727,-1.37161 3.60727,-1.35112 3.60728,-1.33094 3.60727,-1.31106 3.60727,-1.29148 3.60727,-1.27219 3.60728,-1.25319 3.60727,-1.23447 3.60727,-1.21603 3.60727,-1.19787 3.60728,-1.17997 3.60727,-1.16235 3.60727,-1.14499 3.60728,-1.12789 3.60727,-1.11103 3.60727,-1.09445 3.60727,-1.07809 3.60728,-1.062 3.60727,-1.04613 3.60727,-1.03051 3.60727,-1.01511 3.60728,-0.99995 3.60727,-0.98501 3.60727,-0.97031 3.60728,-0.95581 3.60727,-0.94153 3.60727,-0.927469 3.60728,-0.913616 3.60727,-0.89997 3.60727,-0.886528 3.60727,-0.873285 3.60727,-0.860242 3.60728,-0.847393 3.60727,-0.834736 3.60727,-0.822267 3.60728,-0.809986 3.60727,-0.797887 3.60727,-0.785969 3.60727,-0.77423 3.60728,-0.762666 3.60727,-0.751273 3.60727,-0.740053 3.60727,-0.728998 3.60728,-0.71811 3.60727,-0.707383 3.60727,-0.696818 3.60728,-0.68641 3.60727,-0.676157 3.60727,-0.666057 3.60727,-0.656109 3.60728,-0.646309 3.60727,-0.636655"
           style="fill:none;stroke:#ff0000;stroke-width:1.5;stroke-linecap:square;stroke-linejoin:round;stroke-miterlimit:10;stroke-dasharray:none;stroke-opacity:1"
           id="path140"
           inkscape:connector-curvature="0" /></g></g><g
       id="g142"><g
         id="g144"
         clip-path="url(#clipPath148)"><path
           d="m 57.6,290.8224 3.607273,-3.90096 3.607272,-3.84077 3.607273,-3.7815 3.607273,-3.72314 3.607273,-3.6657 3.607272,-3.60914 3.607273,-3.55344 3.607273,-3.49861 3.607273,-3.44463 3.607272,-3.39147 3.607273,-3.33914 3.60727,-3.28762 3.60728,-3.23688 3.60727,-3.18694 3.60727,-3.13776 3.60727,-3.08935 3.60728,-3.04167 3.60727,-2.99474 3.60727,-2.94853 3.60727,-2.90303 3.60728,-2.85823 3.60727,-2.81414 3.60727,-2.7707 3.60727,-2.72796 3.60728,-2.68585 3.60727,-2.64442 3.60727,-2.60361 3.60728,-2.56344 3.60727,-2.52387 3.60727,-2.48494 3.60727,-2.44659 3.60728,-2.40884 3.60727,-2.37166 3.60727,-2.33508 3.60727,-2.29904 3.60728,-2.26356 3.60727,-2.22864 3.60727,-2.19424 3.60728,-2.16039 3.60727,-2.12705 3.60727,-2.09423 3.60727,-2.06192 3.60728,-2.0301 3.60727,-1.99877 3.60727,-1.96793 3.60727,-1.93756 3.60728,-1.90767 3.60727,-1.87823 3.60727,-1.84925 3.60728,-1.82071 3.60727,-1.79262 3.60727,-1.76495 3.60727,-1.73773 3.60728,-1.7109 3.60727,-1.68451 3.60727,-1.65852 3.60727,-1.63292 3.60728,-1.60773 3.60727,-1.58291 3.60727,-1.55849 3.60728,-1.53445 3.60727,-1.51077 3.60727,-1.48745 3.60727,-1.4645 3.60728,-1.4419 3.60727,-1.41966 3.60727,-1.39775 3.60727,-1.37618 3.60728,-1.35494 3.60727,-1.33404 3.60727,-1.31345 3.60728,-1.29318 3.60727,-1.27324 3.60727,-1.25358 3.60728,-1.23424 3.60727,-1.21519 3.60727,-1.19645 3.60727,-1.17798 3.60727,-1.1598 3.60728,-1.14191 3.60727,-1.12429 3.60727,-1.10694 3.60728,-1.08986 3.60727,-1.07304 3.60727,-1.05648 3.60727,-1.04018 3.60728,-1.02413 3.60727,-1.00833 3.60727,-0.99277 3.60727,-0.97745 3.60728,-0.962365 3.60727,-0.947517 3.60727,-0.932896 3.60728,-0.918501 3.60727,-0.904328 3.60727,-0.890374 3.60727,-0.876635 3.60728,-0.863107 3.60727,-0.84979"
           style="fill:none;stroke:#000000;stroke-width:1.5;stroke-linecap:square;stroke-linejoin:round;stroke-miterlimit:10;stroke-dasharray:none;stroke-opacity:1"
           id="path150"
           inkscape:connector-curvature="0" /></g></g><g
       id="g152"><text
         transform="matrix(1,0,0,-1,146.88,64.6272)"
         style="font-variant:normal;font-weight:normal;font-size:12px;font-family:'DejaVu Sans';-inkscape-font-specification:DejaVuSans;writing-mode:lr-tb;fill:#000000;fill-opacity:1;fill-rule:nonzero;stroke:none"
         id="text156"><tspan
           x="0 6.9000001 10.236 17.34 24.719999 32.34 36.155998 44.388 51.743999 58.344002 65.292 72.912003 77.844002 85.188004 92.795998 100.404"
           y="0"
           sodipodi:role="line"
           id="tspan154">Fixed Background</tspan></text>
<text
         transform="matrix(1,0,0,-1,236.16,171.072)"
         style="font-variant:normal;font-weight:normal;font-size:12px;font-family:'DejaVu Sans';-inkscape-font-specification:DejaVuSans;writing-mode:lr-tb;fill:#000000;fill-opacity:1;fill-rule:nonzero;stroke:none"
         id="text160"><tspan
           x="0 9.2399998 16.596001 21.299999"
           y="0"
           sodipodi:role="line"
           id="tspan158">Data</tspan></text>
<text
         transform="matrix(1,0,0,-1,129.024,117.8496)"
         style="font-variant:normal;font-weight:normal;font-size:12px;font-family:'DejaVu Sans';-inkscape-font-specification:DejaVuSans;writing-mode:lr-tb;fill:#ff0000;fill-opacity:1;fill-rule:nonzero;stroke:none"
         id="text164"><tspan
           x="0 7.6199999 10.956 22.643999 30.252001 33.588001 40.944 45.647999 48.984001 56.327999"
           y="0"
           sodipodi:role="line"
           id="tspan162">Simulation</tspan></text>
</g></g></svg>